<svg width="70" height="70" viewBox="0 0 70 70" fill="none" xmlns="http://www.w3.org/2000/svg">
<path d="M35 5C18.5 5 5 18.5241 5 35.1807C5 50.241 15.98 62.741 30.32 65V43.9157H22.7V35.1807H30.32V28.5241C30.32 20.9639 34.79 16.8072 41.66 16.8072C44.93 16.8072 48.3499 17.3795 48.3499 17.3795V24.8193H44.57C40.85 24.8193 39.68 27.1386 39.68 29.5181V35.1807H48.0199L46.6699 43.9157H39.68V65C46.7493 63.8791 53.1866 60.2576 57.8297 54.7893C62.4729 49.3211 65.016 42.3664 64.9999 35.1807C64.9999 18.5241 51.4999 5 35 5Z" fill="#7C7C7C"/>
<path d="M0 0V-2H-2V0H0ZM70 0H72V-2H70V0ZM70 70V72H72V70H70ZM0 70H-2V72H0V70ZM0 2H70V-2H0V2ZM68 0V70H72V0H68ZM70 68H0V72H70V68ZM2 70V0H-2V70H2Z" fill="#FF9900"/>
</svg>
